PathFileType	4	(X/Y/Z)	30_2_12_p0_0-403.trc
DataRate	CameraRate	NumFrames	NumMarkers	Units	OrigDataRate	OrigDataStartFrame	OrigNumFrames
59.0	59.0	7	27	m	59.0	202	404
Frame#	Time	RHip			RKnee			RAnkle			RBigToe			RSmallToe			RHeel			LHip			LKnee			LAnkle			LBigToe			LSmallToe			LHeel			Neck			Head			Nose			RShoulder			RElbow			RWrist			RThumb			RIndex			RPinky			LShoulder			LElbow			LWrist			LThumb			LIndex			LPinky			
		X1	Y1	Z1	X2	Y2	Z2	X3	Y3	Z3	X4	Y4	Z4	X5	Y5	Z5	X6	Y6	Z6	X7	Y7	Z7	X8	Y8	Z8	X9	Y9	Z9	X10	Y10	Z10	X11	Y11	Z11	X12	Y12	Z12	X13	Y13	Z13	X14	Y14	Z14	X15	Y15	Z15	X16	Y16	Z16	X17	Y17	Z17	X18	Y18	Z18	X19	Y19	Z19	X20	Y20	Z20	X21	Y21	Z21	X22	Y22	Z22	X23	Y23	Z23	X24	Y24	Z24	X25	Y25	Z25	X26	Y26	Z26	X27	Y27	Z27	
202	3.4237288135593222	0.2633929759534745	0.4765727033602905	1.0073262595405938	0.30119004346005157	0.5159548539018944	1.4154855431570779	0.29846582785361475	0.5318862899727017	1.7689516401455279	0.27317337418277293	0.34325875870351896	1.7894634590657492	0.32352412192005325	0.3505369280466884	1.7767403775110249	0.2741381117750263	0.6156775193949009	1.8432164865493865	0.0686275629706339	0.48263407285711146	1.01966818471601	0.065800844518652	0.5209519955710683	1.4260841852709196	0.07256684849493979	0.5316413638311239	1.7731834543850515	0.08268179394929065	0.3271488393031329	1.7795753006114445	0.03519836277514024	0.39541096683868837	1.8126055268434638	0.08555645215850025	0.5525995814008218	1.820792895120238	0.180284772521103	0.4935332926367839	0.4922412732522874	0.1796840137379091	0.5007605175296574	0.2517209824383269	0.17861373187742177	0.4310316798712293	0.3807894612530656	0.30996491937079057	0.475141785375845	0.5986658010401512	0.34789145243050174	0.45780770407840365	0.8368564828841628	0.22462166748274992	0.3687064022822298	0.9893344917458463	0.15982498624636735	0.32636835416917	1.0556264550689665	0.1561708851771443	0.3272189418155254	1.0622880248918243	0.16558120270648724	0.32671998164014904	1.080256981669843	0.02446343795114609	0.5049808919761608	0.5838294992315507	-0.001987759533251077	0.41678795278888886	0.8131659595224724	0.12078981757499423	0.2949710534346153	0.9527210135533039	0.19203195254591668	0.3176631845978638	1.0387798542091218	0.1891722917650038	0.32829867787577627	1.058931602978746	0.159263315914885	0.3275461261843163	1.0688302968446843
203	3.440677966101695	0.26344843016534036	0.47663585626054317	1.007212386402062	0.3011707072205099	0.5160193187854453	1.4154146632978977	0.2984941733128128	0.5319235632804733	1.7689390775395184	0.2730019343948466	0.3428179150841756	1.7889481045722722	0.3236855581317246	0.35128254632362005	1.7767172638047481	0.2740757654518001	0.6155275727971165	1.84304794389822	0.06859466815954549	0.4828299947411625	1.0197693320471248	0.06581248023199894	0.5211024130972961	1.4262095990866226	0.07258613737344131	0.5316007384416904	1.773238535909869	0.0826326926045302	0.3269338255835177	1.7796711220046686	0.0324502396702551	0.3941037688187728	1.8079744190635982	0.08553416758951156	0.5525535978676828	1.8209109492814362	0.17657754724928645	0.5066880083341118	0.4948585469679663	0.17969081208689008	0.5007255661057203	0.25176810304357317	0.17860109110130637	0.4310335282182627	0.3808613479822526	0.30933145730752537	0.4744785812487196	0.5948303218611389	0.347970428483382	0.4577883546042327	0.8368288288122768	0.22465077789644544	0.36875454093192006	0.989461880959809	0.15970313717114545	0.3262926914047573	1.0556076908579572	0.15550523059685156	0.3268818072951181	1.0661328636197158	0.16553555378198745	0.3266397552280918	1.0802616032988812	0.02451426176848543	0.5052285764757124	0.5838802981854065	-0.0019883192648837643	0.41687105488434933	0.8131586790853023	0.12082552678756972	0.2947501175863287	0.9526228810409435	0.18865987758031538	0.30739516830569363	1.0350088461664797	0.18583683676983226	0.3176773155927611	1.0549443315517546	0.15852765140291114	0.3266576964039021	1.0642339444207563
204	3.457627118644068	0.26759818856347506	0.47818126951319395	1.0076037130960134	0.30084101463286506	0.5149724544532819	1.4051925201827342	0.2987235692903044	0.5322770691460774	1.7691152964358379	0.27058802318558944	0.3579252383696842	1.7948442713254165	0.323378333797891	0.35023009528979104	1.7767752649432618	0.2737588174563697	0.6172165417771499	1.8403377824977734	0.0732504815099403	0.46893027380821384	1.0142774264459733	0.06567803747797181	0.5209169651240052	1.4260073718849644	0.07209011500204152	0.5330237066249557	1.76992539754585	0.07790221273483838	0.34019538669549365	1.7892775666535314	0.0320395133571222	0.3940898208527221	1.8086431222301849	0.08565028770327739	0.55277396306701	1.8215871892899096	0.1803904854361872	0.4936057110411832	0.49243196514623355	0.17979501486804855	0.5007981941332226	0.2517954817943347	0.17861262580351608	0.43079430082828957	0.38094406639922124	0.3092380659324796	0.4744196627834447	0.5947837622842154	0.34789313431052493	0.4580382808726687	0.8368441959417642	0.22798013181825888	0.3553053564735416	0.9841717411086428	0.15962401544465296	0.3265129746793431	1.0558900003988807	0.1546351064895526	0.3255797232143051	1.0614087897584679	0.1652343422530606	0.32516176235850236	1.0846112416637101	0.024574937633519443	0.5051094161693075	0.5838375323939154	-0.0023456741581881022	0.41598485600993346	0.8087759984405777	0.12137068017604087	0.29516334894437557	0.949515852434454	0.19161940964672827	0.31836004893016834	1.0390928391172694	0.18928422077566318	0.3290735087989466	1.055924581672105	0.1555386959023028	0.3392722215545693	1.0737987794827715
205	3.4745762711864407	0.26755128886433566	0.4782465159993573	1.0074002998545517	0.3007164054067318	0.5149349255910106	1.4054468357824499	0.29879972431126856	0.5324889957208907	1.7692622280826062	0.27058362255568513	0.35819446009948364	1.794711579154856	0.3235913019828409	0.3506317205898027	1.7767348549757498	0.27376043652715554	0.617293788131787	1.8402905092735682	0.0725281416685573	0.4682274899833512	1.0094593643589176	0.0664363269863386	0.5210613825536496	1.421791622138728	0.07215125887391816	0.5331996220048677	1.7699469487969464	0.0779745726229455	0.3404362032685804	1.7892828329873214	0.03215561419273272	0.39430628203104445	1.8087124679628748	0.08556668763802029	0.5524746320943743	1.821016630658381	0.18039321925952284	0.49368368255619155	0.49241849292672946	0.17976366088932047	0.5007387056051764	0.2518318145076429	0.17862747456935504	0.43083878224076866	0.3809620281357576	0.3092806220169658	0.4744867391615209	0.5947941212845398	0.3479542589762092	0.4581101456006068	0.8368414392043286	0.22801803092723624	0.3554120205161334	0.984177233400521	0.15976165449017352	0.3267197490941155	1.0558858855970068	0.1554127351146796	0.3262997076027365	1.0574886595515924	0.16582882114531836	0.325803922722435	1.0802749417342357	0.024618685487716886	0.5053747497787697	0.583887311740324	-0.002384848400229056	0.4160790014559394	0.8087938821892767	0.12134837237902404	0.29516310754576724	0.9494895511457748	0.19171959747324863	0.31839268596406844	1.039098725864823	0.18937660389846522	0.3293201840880106	1.056079198534181	0.159577185055246	0.34040607515719185	1.0740012514385393
206	3.4915254237288136	0.2675628692370077	0.47817996738299695	1.007487762157305	0.3018121009544351	0.5160915288309212	1.4108712224295301	0.2987329995544316	0.5324603291230051	1.7693809314132087	0.2665412481181154	0.3462970035334022	1.7874402757993582	0.3233394828788084	0.34975948471254736	1.7767295664818081	0.27414419689825675	0.616099465319888	1.843557792467632	0.07251269730162446	0.46797354836195987	1.009519927857886	0.06676058567755626	0.5195403654966015	1.4251809317704391	0.07254951045668734	0.5318518516600945	1.773191931634069	0.07784799928956916	0.34011290323885235	1.7892349632684283	0.03516342943556413	0.3968848965367687	1.8063892927699325	0.08568858346242093	0.552611973724268	1.8215128161548284	0.18036491128756865	0.4937242794649464	0.4924157901277377	0.17972671131155588	0.5008102149925152	0.25178565462268865	0.17864601118928716	0.4307965140204629	0.38101413606722645	0.30927827819033554	0.47445196993732264	0.5948232997412772	0.3480485881284471	0.4582080494722224	0.8368359462911377	0.22797703891212012	0.3550923033849028	0.9840696793598535	0.1596640986203878	0.326421017094584	1.0556799245521802	0.15535556131120787	0.32604305237247067	1.057328793644331	0.16585804832147943	0.32577881503760475	1.080359740697145	0.024868699317201585	0.5047091274852981	0.5875077502285773	-0.002367804475253104	0.416074386594932	0.8087061092888592	0.1213132107889035	0.2952701628272747	0.9494755945276656	0.19172768999597398	0.31839061703783594	1.0390826135782516	0.18930410965782804	0.32937808294005827	1.056021855767999	0.16015429303711617	0.3405193352615873	1.0703736033503928
207	3.5084745762711864	0.2680674448391773	0.47835307197408644	1.0035562879975986	0.3021716871787493	0.51466949953886	1.4141489155554892	0.29873200363413516	0.5325687746915451	1.7694413921531855	0.2665642813129611	0.34624237829530496	1.7875497500773354	0.3233545324912842	0.3500217416800627	1.7768367464517554	0.2741341238837859	0.6161187674362962	1.8435056697153225	0.0732376515970168	0.46858765454799817	1.0142272516516375	0.06673607015057208	0.5196188309639953	1.4251560920795676	0.07257281140162816	0.5318195960329372	1.7733549354889404	0.07788842641745297	0.34016683515746154	1.789224896178524	0.03212302563516069	0.3942513686971274	1.80870391630364	0.08956250680074068	0.5656493625227605	1.8292122375991158	0.18037418040002495	0.493837550848251	0.4923550736595432	0.17969067548545167	0.5007127263288083	0.25179991926075523	0.17868071632342922	0.43070145236144	0.38104788349769886	0.309303280431332	0.474441420517097	0.594796097462021	0.3480472441179975	0.45831296788000303	0.8368935381234301	0.2279999482189863	0.35503540734128247	0.9840741544068108	0.15984869858559259	0.32658718658074376	1.0556537368524948	0.15554720829416138	0.32642305041841174	1.0574263127618093	0.16517179668291262	0.32548184548385106	1.0758466506115703	0.024881125512060974	0.5046672125703859	0.5875304630606253	0.0016893112122947453	0.417860354115482	0.8091878025642978	0.12143260244437222	0.2952518467160787	0.9494658641531172	0.19210510076326223	0.31867606752481975	1.0392205573727729	0.18940632421990009	0.3296428710320167	1.0560828512518055	0.1594710838127105	0.3398608537401647	1.0658126942619368
208	3.5254237288135593	0.26769008165087416	0.47822976536731515	1.0075407210880116	0.30023030175169285	0.5136488558568001	1.4139566374724928	0.2984939486884153	0.5327931091230291	1.7696550664195376	0.27086573573348577	0.3564930714418202	1.7978041801358524	0.32783003074266165	0.36207323004744874	1.7836384373030703	0.27811993226023485	0.6298246185701197	1.8578098464997312	0.07335777668668018	0.4688104830394111	1.0143003985586074	0.06599685533779427	0.5191062865196965	1.4293339627830315	0.07261939239521563	0.5319457119296661	1.773195952197173	0.0825512904533481	0.3272357655487648	1.7801139476822927	0.032251390657695125	0.3945371399383271	1.8089108488985388	0.08809213595574614	0.5637891585726629	1.8224456262939899	0.18036090365814392	0.4938492487030322	0.4923636920127268	0.18000256720125293	0.5014735384828987	0.2553476962536135	0.1786200095818466	0.4303190094367438	0.3843331748641054	0.3093250060055092	0.47456416466538937	0.5947796908288682	0.34815073955954523	0.4584114447638492	0.8367560715284834	0.2281854516745474	0.35514927853147393	0.9840944690196185	0.16000836119441558	0.3267367862545009	1.0555495984225536	0.15572029174195562	0.32678003355987206	1.0574728436206629	0.16504111478982436	0.32576780270044065	1.075621706545959	0.025295589744343247	0.5055094095045697	0.5912045578235702	0.002081260092098937	0.41809593841079523	0.8056574157736807	0.12446944634435261	0.30630641357475447	0.953299787110545	0.19240480253732692	0.31825294948615435	1.0389802497682923	0.1895375119257985	0.32920131944205566	1.0557722563830132	0.15947592056422394	0.339821088194866	1.0654998462493193
